<?xml version="1.0" encoding="utf-8"?>
<!-- Generator: Adobe Illustrator 26.0.2, SVG Export Plug-In . SVG Version: 6.00 Build 0)  -->
<svg version="1.1" id="b759170a-51c3-4e2f-999d-77dec9fd6d11"
	 xmlns="http://www.w3.org/2000/svg" xmlns:xlink="http://www.w3.org/1999/xlink" x="0px" y="0px" viewBox="0 0 1140.6 787.3"
	 style="enable-background:new 0 0 1140.6 787.3;" xml:space="preserve">
<style type="text/css">
	.st0{opacity:0.1;fill:#8AFFB4;enable-background:new    ;}
	.st1{fill:#3D3900;}
	.st2{opacity:0.2;fill:#FFFFFF;enable-background:new    ;}
	.st3{fill:#2271FF;}
	.st4{opacity:0.25;enable-background:new    ;}
	.st5{fill:none;stroke:#535461;stroke-width:2;stroke-miterlimit:10;}
	.st6{fill:#FF7220;}
	.st7{fill:#425000;}
	.st8{fill:#234E00;}
	.st9{opacity:5.000000e-02;enable-background:new    ;}
	.st10{opacity:0.1;enable-background:new    ;}
	.st11{fill:#43411B;}
	.st12{fill:#B26A49;}
	.st13{fill:#E3E8F4;}
	.st14{fill:#EE8E9E;}
	.st15{fill:#30374E;}
	.st16{fill:#00351C;}
	.st17{opacity:0.1;fill:#FF7220;enable-background:new    ;}
	.st18{fill:#3D2300;}
	.st19{fill:#0E3200;}
	.st20{opacity:0.1;}
	.st21{fill:#FFFFF3;}
</style>
<path class="st0" d="M8.8,414.5c20.2-32.9,65.7-27.2,98.1-10s64.6,42.9,100.2,37.9c30-4.2,54.6-30.3,67.9-60.5s17.2-64.2,20.9-97.5
	c4.7-41.9,9.4-83.8,14.1-125.7c1.7-15.3,3.8-31.5,12.4-43.6c11.4-16,32.3-20.9,50.1-16.1s33.1,17.7,46.1,32.1
	c41.7,46.1,65.4,108.4,101.9,159.6c7.4,10.4,15.8,20.8,26.9,25.8c16,7.2,34.4,2.1,50-6c51-26.3,85.3-79.9,118.9-130
	c16.4-24.3,36.3-50.4,63.6-53c28.7-2.8,53.6,21.6,70.4,47.5c54.1,83.2,65.7,196.9,131,269.5c8.1,9,17.1,17.3,27.4,22.9
	c3.4,1.8,6.9,3.4,10.6,4.7c57,19.7,76,98.9,33.8,145.9c-0.9,1-1.8,2-2.8,3c-6.3,6.6-13.3,12.9-21.8,14.8c-7.9,1.8-16-0.3-23.8-2.5
	c-49.9-14.5-99.1-36.8-150.7-35.7c-50.2,1-97.7,24.2-147.3,32.5c-33.3,5.6-67.3,4.5-101,3.3c-112.3-4-224.6-8.7-336.9-14.1
	c-55.7-2.6-111.5-5-167.2-7.8c-42.9-2.2-70.3-7.1-75.2-57C22.1,510.7-17.1,456.7,8.8,414.5z"/>
<ellipse class="st1" cx="789.9" cy="749.5" rx="270" ry="37.7"/>
<path class="st2" d="M304.9,244.6l-0.1,0.1l-36.9,47.6c0,0.4,0,0.8,0,1.2c0,8.2,2,16.3,5.8,23.6l43.5-74.4L304.9,244.6z"/>
<path class="st2" d="M316.7,287.6l-30.2,45.2c-3.6-3-6.8-6.5-9.5-10.3l36-38.6L316.7,287.6z"/>
<path class="st3" d="M936.1,655.6c4.5,7.5,31.3,21.1,31.3,21.1s0.4-30-4.1-37.5c-4.5-7.5-14.3-9.9-21.8-5.4S931.6,648.1,936.1,655.6
	z"/>
<path class="st3" d="M994,704.5c-8.5,2.1-37-7.1-37-7.1s20.8-21.6,29.3-23.7c8.5-2.1,17.1,3,19.3,11.5
	C1007.6,693.7,1002.5,702.3,994,704.5z"/>
<path class="st4" d="M936.1,655.6c4.5,7.5,31.3,21.1,31.3,21.1s0.4-30-4.1-37.5c-4.5-7.5-14.3-9.9-21.8-5.4S931.6,648.1,936.1,655.6
	z"/>
<path class="st4" d="M994,704.5c-8.5,2.1-37-7.1-37-7.1s20.8-21.6,29.3-23.7c8.5-2.1,17.1,3,19.3,11.5
	C1007.6,693.7,1002.5,702.3,994,704.5z"/>
<path class="st5" d="M937.4,726.5c0,0,66.3-34.2,87.1-88.7c8.6-22.9,24.3-42.4,44.9-55.6c9.8-6.2,20.2-11.5,31-15.8"/>
<path class="st6" d="M1113.7,532.1c-6.3,6.1-13.8,35.1-13.8,35.1s29.4-6.1,35.7-12.2c6.4-6.1,6.6-16.1,0.5-22.5
	S1120.1,526,1113.7,532.1L1113.7,532.1L1113.7,532.1z"/>
<path class="st6" d="M1060.4,546.7c-2,8.5,7.6,37,7.6,37s21.3-21.1,23.3-29.7c2-8.5-3.3-17.1-11.8-19.1
	C1071,533,1062.5,538.2,1060.4,546.7L1060.4,546.7z"/>
<path class="st6" d="M1001.2,604.9c2.6,8.4,25.2,28.1,25.2,28.1s7.8-29,5.2-37.3c-2.6-8.4-11.4-13.1-19.8-10.6
	C1003.4,587.7,998.7,596.5,1001.2,604.9L1001.2,604.9z"/>
<path class="st3" d="M966.3,659.1c1.1,8.7,20.1,31.9,20.1,31.9s12.6-27.2,11.4-35.9c-1.1-8.7-9.1-14.9-17.8-13.8
	S965.2,650.4,966.3,659.1L966.3,659.1z"/>
<path class="st6" d="M1089.8,608.9c-8.8-0.3-33.6-17.1-33.6-17.1s26-14.9,34.8-14.6c8.8,0.3,15.6,7.7,15.3,16.5
	C1105.9,602.4,1098.6,609.3,1089.8,608.9L1089.8,608.9z"/>
<path class="st6" d="M1048.2,671.7c-8.3-2.9-26.9-26.4-26.9-26.4s29.3-6.5,37.6-3.5c8.3,2.9,12.6,12,9.7,20.3
	C1065.6,670.3,1056.5,674.7,1048.2,671.7L1048.2,671.7z"/>
<path class="st6" d="M999.4,727.2c-8.6-1.5-31-21.5-31-21.5s27.8-11.3,36.4-9.8c8.6,1.5,14.4,9.7,12.9,18.3
	C1016.3,722.9,1008.1,728.7,999.4,727.2L999.4,727.2L999.4,727.2z"/>
<path class="st7" d="M977,704.8c0,0-6.7,40.2-40.5,46.2s-146.7,4.8-146.7,4.8s-64.5-9.3-87.8-63.8s-38.3-76.2-18.3-77.1
	s127.8,36.4,134,36.9S982.9,568.8,977,704.8z"/>
<path class="st8" d="M674.4,749.5c0,0,3.4,8.9,12.6,9.5c1.4,0.1,2.7,0,4.1-0.2c12.4-2.1,41.4-7.1,51.7-5.2
	c6.2,1.2,17.5-0.5,25.7-2.1c5.4-1,9.3-2,9.3-2s-9.5-31.7-10.7-32.6s-42.8-26-42.8-26l-33-2.4h-0.1c0,0-6.1,0.4-11.2,6.6
	c-3.5,4.2-6.5,11.1-6.7,22.5C672.7,745.5,674.4,749.5,674.4,749.5z"/>
<path class="st9" d="M674.4,749.5c0,0,3.4,8.9,12.6,9.5c-3.3-4.2-6.3-8.5-9-13.1l0.2-23.1c-1.5-17.3,6.6-28.4,13-34.3h-0.1
	c0,0-17.4,1.2-17.9,29S674.4,749.5,674.4,749.5z"/>
<path class="st10" d="M817.5,699.1l30.7-24l48.3-47.6c0,0-5.2-0.2-13.1-0.6c-2,1.2-7.5,5.2-7.7,10c-0.2,5.8-13.1,0.4-19.7,3.7
	s-39.3,45.1-45,44.8s-10.2-2.9-12.6,1.2c0,0.1-0.1,0.2-0.2,0.3L817.5,699.1z"/>
<path class="st10" d="M679.9,695.2c1.1,0.5,2.2,1,3.3,1.5c23.3,10,52.1,31,54.3,34.8c1.3,2.3,18,12.5,30.9,20.1c5.4-1,9.3-2,9.3-2
	s-9.5-31.7-10.7-32.6s-42.8-26-42.8-26l-33-2.4h-0.1C691.1,688.6,685,689,679.9,695.2z"/>
<path class="st11" d="M615.1,626.9c3.1,7.6,29,36.9,29,36.9s16.4,21.4,39.8,31.4s52.1,31,54.3,34.8c1.4,2.5,20,13.7,33.1,21.3
	l2.9,1.7l6.5,3.8l3.4,2c0,0,8-6.4,15.9-12.8s15.6-12.8,15.8-13.1c0.2-0.7,3.3-8.8,2.6-9.3c-0.4-0.2-2-3.5-5-7.4
	c-3.2-4.2-7.4-7.7-12.1-10c-11-5-15.7-16.4-15.7-16.4s-1-0.8-2.6-1.8c-2.8-1.8-7.3-4.3-10.7-4.8c-5.2-0.7-15-11.4-15-11.4
	s-6.7-4.3-9.3-9.8c-2.5-5.2-39.4-30.6-42.8-32.9l89.5,57.5l21.4,13.8l30.7-24l48.3-47.6c0,0-6.5-0.3-16-0.7
	c-23.5-1-65.2-2.6-70.5-1.4c-4.3,1-8.7,1.3-13.1,0.8c0,0-11.9,0.5-19.7-3.6s-20.2-6.1-21.7-9.2S710.5,597,710.5,597
	s-57.4-30.5-77.8-12.4S612,619.3,615.1,626.9z"/>
<path class="st12" d="M800.1,452.2l7.4,24.5l9.5,55.2l35,2.4l10.1-16.8l10.1-16.8c0,0,6.3-22.3,10.8-43.9c4-19.1,6.6-37.6,2.3-39.6
	c-3.9-1.8-6.4-8.2-8-15.1c-0.2-0.9-0.4-1.7-0.6-2.6c-1.2-5.9-1.9-11.8-2.3-17.8c0,0-73.3-3.8-63.1,26.4c1.8,5.2,2.8,10.6,2.8,16.1
	c0,1.4-0.1,2.7-0.2,4.1C812.8,437.8,807.8,446.5,800.1,452.2z"/>
<path class="st13" d="M784.9,448.1l2.6,41.7l6,35.5l6.7,16.4l6,89.9c0,0,57.4,6.6,71.4-0.1c1-0.4,1.9-1.1,2.5-2
	c16.9-25.4,11.3-99.2,11.3-99.2l6.4-47.6l-4.3-24.7l-10.3-1.1l-8-0.8c0,0-1.8,2.2-4.4,5.7c-7.1,9.3-20,27.7-19.2,35.3
	c1.2,10.5-1.4,21.2-5.5,22.9s-7.4,4.5-8.1,1.7s-1.4-3.6-0.7-7.6c0.7-4.1-3.1-16.4-3.1-16.4s-6.4-14.5-6-20.7s-0.7-13.3-2.6-15
	s-4.5-3.3-2.4-11s-9.4-22.5-9.4-22.5L784.9,448.1z"/>
<path class="st10" d="M860.7,552.2l2.4,71.2l13.8,7.6c1-0.4,1.9-1.1,2.5-2c16.9-25.5,11.3-99.2,11.3-99.2l6.4-47.6l-4.3-24.7
	l-10.4-1.1c4-19.1,6.6-37.6,2.3-39.6c-3.9-1.8-6.4-8.2-8.1-15.1l0,0l-7.4,50.4c0,0,0.6,4.5,0.8,9.2c0.2,3.5,0.1,7-0.6,8.9
	c-1.7,4.3-0.5,11.9-0.5,11.9c-4.3,7.6-6.4,21.6-7.5,35.1C860.2,535,860.7,552.2,860.7,552.2z"/>
<path class="st8" d="M876.9,400.5c0,0,12,1.5,15.8,6.5s13.8,5.7,13.8,5.7s11.4,3.8,11.2,4.8s3.3,2.4,10.5,4.3s19,8.8,19,10.5
	s18.8,20.2,18.8,22.1c0,1.9,5.7,9,5,21.7s-1.4,28.6,1.4,31.2s0,12.9,0,12.9c-1.5,2.3-1.6,5.3-0.1,7.6c2.4,4.3-0.5,22.2-0.5,22.2
	l0.2,18.6c0,0-2.6,11.7,0.5,12.1s-0.5,5.7-0.5,5.7s-2.6,9.5,0.7,13.8s4.3,22.6,4.3,22.6l51,74c0,0,0.7,13.6-15.5,13.3
	s-16,3.1-15.5,6.2s-4.5,6.4-4.5,6.4s-6.4,3.3-2.6,7.4s14.8,13.3-3.3,19.5c-2.1-2.9-3.9-6.1-5.2-9.5c-1.5-4.2-2.8-8.5-3.8-12.8
	c0,0-1.7-18.1-5-20.5s-2.9-13.8-2.9-13.8s4.8-9.3-1.9-13.1s-103.4-57.3-103.4-57.3l-2.4-71.2c0,0-1.7-52.6,8.3-70.2
	c0,0-1.2-7.6,0.5-11.9s-0.2-18.1-0.2-18.1L876.9,400.5z"/>
<path class="st10" d="M814.5,429c0,0-23.9-4.9-30.4-1.6s-19,6-21,7.9s-6.7,0.5-11,11.7s-4.8,22.6-10.2,27.8s-8.3,8.8-8.6,12.6
	s0.7,4.8-1.4,6s-5.2,6.2-4.3,8.1s49.6,43.8,49.6,43.8s2.4,16,4.5,20s-2.4,59.8-7.1,63.6s32.1,3.5,32.1,3.5s1.7-36.5,3.1-38.5
	s-1-41-1-41s-0.2-33.3,2.9-42.1c3.1-8.8,2.7-38.1,2.7-38.1s2.7-17.6,6.1-21.7S814.5,429,814.5,429z"/>
<path class="st8" d="M813.8,428.3c0,0-23.9-4.9-30.4-1.6s-19,6-21,7.9s-6.7,0.5-11,11.7c-4.3,11.2-4.8,22.6-10.2,27.9
	s-8.3,8.8-8.6,12.6s0.7,4.8-1.4,6s-5.2,6.2-4.3,8.1s49.5,43.8,49.5,43.8s2.4,16,4.5,20s-2.4,59.8-7.1,63.6s32.1,3.5,32.1,3.5
	s1.7-36.5,3.1-38.5s-1-41-1-41s-0.2-33.3,2.9-42.1c3.1-8.8,2.8-38.1,2.8-38.1s2.7-17.6,6.1-21.7S813.8,428.3,813.8,428.3z"/>
<path class="st10" d="M811.3,408.1c1.8,5.2,2.8,10.6,2.8,16.1c24.1,7.1,49.9-3.1,62.7-24.8c-1.2-5.9-1.9-11.8-2.3-17.8
	C874.4,381.7,801.1,377.9,811.3,408.1z"/>
<path class="st12" d="M775.1,370.5c0,30.1,24.5,54.5,54.6,54.5c30.1,0,54.5-24.5,54.5-54.6c0-30.1-24.5-54.5-54.6-54.5
	c-25.7,0-48,18.1-53.3,43.2C775.5,362.9,775.1,366.7,775.1,370.5z"/>
<path class="st8" d="M740.1,496.7l-13.1,4c0,0,1.2,4.8-2.6,7.1s-3.3,7.2-3.3,7.2s-1.4,5.2-4.8,6.4s-5.5,9-5.5,9l-11,12.6
	c0,0-4,3.3-3.3,5s-4.3,2.1-4.3,2.1l2.6,42.4l22.6,4.3l14-1.4l11.4-4.3l10-6l4.6-11.6l20-30.5L740.1,496.7z"/>
<path class="st14" d="M695.6,553.6c0,0-29-41.9-50.7-19.3c-21.7,22.6,8.8,59.3,16,58.1s41.2-3.1,41.2-3.1L695.6,553.6z"/>
<path class="st15" d="M635.5,548.7l26.9-24.2c5.2-4.7,13.2-4.3,17.8,0.9l29.8,33.1c4.7,5.2,4.3,13.2-0.9,17.8l-26.9,24.2
	c-5.2,4.7-13.2,4.3-17.8-0.9l-29.8-33.1C629.9,561.3,630.4,553.3,635.5,548.7z"/>
<path class="st10" d="M635.5,548.7l26.9-24.2c5.2-4.7,13.2-4.3,17.8,0.9l29.8,33.1c4.7,5.2,4.3,13.2-0.9,17.8l-26.9,24.2
	c-5.2,4.7-13.2,4.3-17.8-0.9l-29.8-33.1C629.9,561.3,630.4,553.3,635.5,548.7z"/>
<path class="st16" d="M636.3,545.2l26.9-24.2c5.2-4.7,13.2-4.3,17.8,0.9l29.8,33.1c4.7,5.2,4.3,13.2-0.9,17.8l-26.9,24.2
	c-5.2,4.7-13.2,4.3-17.8-0.9L635.4,563C630.8,557.9,631.2,549.9,636.3,545.2z"/>
<circle class="st3" cx="672.4" cy="560.7" r="13.6"/>
<circle class="st17" cx="672.4" cy="560.7" r="13.6"/>
<circle class="st6" cx="672.2" cy="561" r="13.6"/>
<path class="st12" d="M676.8,562.4c-0.2,31.4,64.8,38.1,64.8,38.1l16.6,2.6l7.4,1.2l3.1-30.7c0,0-3.4-0.5-7.7-1.5
	c-6.3-1.5-14.4-4-16.2-7.5C742,558.6,677,531,676.8,562.4z"/>
<path class="st10" d="M776.3,359.2c1.5,0.1,2.9,0.7,4,1.8c1.8,2,1.9,5.4,4.3,6.6c0.9,0.4,1.9,0.5,2.8,0.3c6.3-0.9,10-8,16.1-10
	c3.5-1.1,7.3-0.4,10.7,0.9c1.4,0.4,2.6,1.2,3.5,2.3c2,2.6,0.6,6.5,1.5,9.7c1.3,4.4,6.6,6.2,11.2,6.8s9.7,0.9,12.8,4.4
	c2.2,2.5,2.7,6,2.3,9.2c-0.3,1.1-0.3,2.3,0,3.4c1.3,3.6,7.4,3,9,0.2c1.2-2,0.8-3.8,3.6-4.3c1.9-0.4,4.1,0.4,5.8,1
	c4.8,1.7,10,2.5,15.1,2.3c12.7-27.3,0.9-59.7-26.4-72.5c-27.3-12.7-59.7-0.9-72.5,26.4C778.4,351.4,777.1,355.2,776.3,359.2z"/>
<path class="st18" d="M845.4,393.1c-0.3-1.1-0.3-2.3,0-3.4c0.4-3.2-0.1-6.8-2.3-9.2c-3-3.5-8.2-3.8-12.8-4.4s-9.8-2.3-11.2-6.8
	c-0.9-3.2,0.5-7.1-1.5-9.7c-0.9-1.1-2.2-1.8-3.5-2.3c-3.4-1.3-7.2-2-10.7-0.9c-6.1,2-9.7,9.1-16.1,10c-1,0.2-1.9,0.1-2.8-0.3
	c-2.4-1.2-2.5-4.7-4.3-6.6c-2.9-3.1-8.4-1.1-11.9-3.4c-2.3-1.5-3.2-4.4-3.8-7c-1.3-5.2-2.3-10.6-1.1-15.8c2.1-8.9,10-14.9,15-22.5
	c4.7-7,7.3-16,14.4-20.6s16.2-3.6,24.2-1.2c3.7,1.1,7.4,2.5,11.3,3c6.4,0.8,12.9-1,19.4-1.2c9.2-0.3,18.1,2.4,25.6,7.8
	c1.7,1.1,3.1,2.5,4.2,4.2c1.3,2.3,1.5,5,1.8,7.6c0.8,4.9,2.5,9.7,5,13.9c2,3.4,4.5,6.4,6.3,9.9s2.9,7.5,1.7,11.3
	c-0.6,2-1.8,3.7-2.3,5.7c-1.1,4.6,2,9.1,4.1,13.4c2,3.9,3,8.3,2.8,12.7c-0.2,4.4-2.3,8.6-5.7,11.4c-3.4,2.6-7.8,3.5-12.1,3.7
	c-5.2,0.2-10.4-0.6-15.4-2.3c-1.8-0.6-4-1.4-5.8-1c-2.8,0.6-2.4,2.3-3.6,4.3C852.9,396.1,846.7,396.6,845.4,393.1z"/>
<path class="st10" d="M816.1,700.5l30.7-24l48.3-47.6c0,0-6.5-0.3-16-0.7c-1.7,1.8-3.3,4-3.4,6.5c-0.2,5.8-13.1,0.4-19.7,3.7
	s-39.3,45.1-45,44.8s-10.2-2.9-12.6,1.2c-0.1,0.1-0.1,0.2-0.2,0.3c-1,1.1-2.2,1.8-3.6,2.2L816.1,700.5z"/>
<path class="st11" d="M754.2,698.8l15.4,49.3l2.4,7.7l7.3-2l16.2-4.5l72.2-19.8c0,0,13.6-0.2,26-6.9c13.8-7.5,29.3-11.2,44.8-9.8
	c9.5,0.9,20.2-3.2,29-19.5c0,0,20-59-30.5-76s-52.9,9-52.9,9s-0.3,0.1-0.7,0.4c-2,1.2-7.5,5.2-7.7,10c-0.2,5.8-13.1,0.4-19.7,3.7
	s-39.3,45.1-45,44.8s-10.2-2.9-12.6,1.2c0,0.1-0.1,0.2-0.2,0.3c-1.8,2.4-7.1,3-10.6,3.1c-1.9,0.1-3.3,0-3.3,0L784,690l-3.7,1
	L754.2,698.8z"/>
<path class="st10" d="M758.1,603.1l7.4,1.2l3.1-30.7c0,0-3.4-0.5-7.7-1.5C762.1,576.4,759.6,593,758.1,603.1z"/>
<path class="st10" d="M952.8,459.6c0,0,22.1-6.4,16.7,56.4s-46.4,102.6-46.4,102.6s-47.1,20.7-68.3,17.4s-36.7-4-36.7-4
	c-6.7-3.4-14-5.3-21.4-5.7c-11.9-0.5-36.9-7.9-37.4-10.2s6.2-37.4,3.3-40c0,0,33.3,1.4,36.7,3.8s8.1,0.7,11.7,0s14.5-10.2,36.2-1.9
	c0,0,7.4,0.7,10.2-1.2s7.4-0.5,7.4-0.5s4.5-1.7,5.2-2.7s6.4,0,6.4,0c1.3,0.6,2.8,0.1,3.4-1.2c0.1-0.2,0.1-0.3,0.2-0.5
	c0.7-1.9,1.9-3.7,3.3-5.2c0,0,6.4-36.2,18.6-49.8c0,0,3.6-3.1,2.6-6.9C903.5,506.3,924.3,452,952.8,459.6z"/>
<path class="st8" d="M883.3,451.8c0,0,22.1-6.4,16.7,56.4c-5.5,62.9-46.5,102.6-46.5,102.6s-47.1,20.7-68.3,17.4
	c-21.2-3.3-36.7-4.1-36.7-4.1c-6.7-3.4-14-5.3-21.4-5.7c-11.9-0.5-36.9-7.9-37.4-10.2s6.2-37.4,3.3-40c0,0,33.3,1.4,36.7,3.8
	c3.3,2.4,8.1,0.7,11.7,0s14.5-10.2,36.2-1.9c0,0,7.4,0.7,10.2-1.2c2.9-1.9,7.5-0.5,7.5-0.5s4.5-1.7,5.2-2.6c0.7-1,6.4,0,6.4,0
	c1.4,0.7,3.2-0.1,3.6-1.7c0.7-2,1.9-3.7,3.3-5.2c0,0,6.4-36.2,18.6-49.8c0,0,3.6-3.1,2.6-6.9C834,498.5,854.7,444.2,883.3,451.8z"/>
<path class="st10" d="M780.3,691l31.4,38c0.1-0.1,0.2-0.2,0.2-0.2c0.2-0.7,3.3-8.8,2.6-9.3s-6.2-12.4-17.1-17.4
	c-6.7-3-11.1-8.5-13.5-12.2L780.3,691z"/>
<path class="st10" d="M780.7,756.9l3.4,2c0,0,8-6.4,15.9-12.8s15.6-12.8,15.8-13.1c0.2-0.7,3.3-8.8,2.6-9.3c-0.4-0.2-2-3.5-5-7.4
	c-21.3-6-7.8,8.8-5.9,9.5c0,0-26-6-27.4,22.3C779.9,751,780.1,754,780.7,756.9z"/>
<path class="st8" d="M807,768.8l4.5,2.6l46,1.2c0,0,9.9,6,16.3,7.8c0.8,0.2,1.5,0.4,2.3,0.5c4.3,0.3,8.5,0.4,12.8,0.2
	c3.5-0.1,6.2-0.2,6.2-0.2s-2.2-58-3.8-64c-0.8-2.9-4.6-2.3-8.4-0.8c-2.9,1.2-5.6,2.6-8.2,4.2c0,0-19.5,1.9-22.6,3.6s-11.9-1-17.4,0
	s-15.2-6.5-15.2-6.5c-26.7-8.8-11.7,7.6-9.8,8.3c0,0-25.9-6-27.4,22.3S807,768.8,807,768.8z"/>
<path class="st19" d="M873.4,746.5c0.5,12,9.8,26.9,15.4,34.8c3.5-0.1,6.2-0.2,6.2-0.2s-2.2-58-3.8-64c-0.8-2.9-4.6-2.3-8.4-0.8
	C878.3,724.8,873,736.8,873.4,746.5z"/>
<path class="st10" d="M707.1,630.6c0,0,22.8,7.4,42.2,33.7L707.1,630.6z"/>
<g class="st20">
	<path d="M892.5,344.9c0,0.2-0.1,0.3-0.1,0.5c-0.2,0.7-0.5,1.4-0.8,2C891.8,346.5,892.1,345.7,892.5,344.9z"/>
	<path d="M763.4,333.3c0.4-1.7,1-3.3,1.8-4.8c-0.1,0.4-0.2,0.8-0.3,1.2c-1.2,5.2-0.2,10.6,1.1,15.8c0.7,2.7,1.5,5.6,3.8,7
		c3.5,2.3,9,0.3,11.9,3.4c1.8,2,1.9,5.4,4.3,6.6c0.9,0.4,1.9,0.5,2.8,0.3c6.3-0.9,10-8,16.1-10c3.5-1.1,7.3-0.4,10.7,0.9
		c1.4,0.4,2.6,1.2,3.5,2.3c2,2.6,0.6,6.5,1.5,9.7c1.3,4.4,6.6,6.2,11.2,6.8s9.7,0.9,12.8,4.4c2.2,2.4,2.7,6,2.3,9.2
		c-0.3,1.1-0.3,2.3,0,3.4c1.3,3.6,7.4,3,9,0.2c1.2-2,0.8-3.8,3.6-4.3c1.9-0.4,4.1,0.4,5.8,1c4.9,1.7,10.2,2.5,15.4,2.3
		c4.3-0.1,8.7-1,12.1-3.7c1.5-1.2,2.8-2.8,3.7-4.5c-0.8,3.2-2.6,6-5.1,8.1c-3.4,2.6-7.8,3.5-12.1,3.7c-5.2,0.2-10.4-0.6-15.4-2.3
		c-1.8-0.6-4-1.4-5.8-1c-2.8,0.6-2.4,2.3-3.6,4.3c-1.6,2.8-7.8,3.4-9.1-0.2c-0.3-1.1-0.3-2.3,0-3.4c0.4-3.2-0.1-6.8-2.3-9.2
		c-3.1-3.5-8.2-3.8-12.8-4.4s-9.8-2.3-11.2-6.8c-1-3.2,0.5-7.1-1.5-9.7c-1-1.1-2.2-1.8-3.5-2.3c-3.4-1.3-7.2-2-10.7-0.9
		c-6.1,2-9.8,9.1-16.1,10c-1,0.2-1.9,0.1-2.8-0.3c-2.4-1.2-2.5-4.7-4.3-6.6c-2.9-3.1-8.4-1.1-11.9-3.4c-2.3-1.5-3.2-4.4-3.8-7
		C763.2,344,762.2,338.5,763.4,333.3z"/>
</g>
<path class="st10" d="M896.2,523.9c-4.4,5.9-9.3,11.3-13.2,17.6s-6.6,13.5-5.8,20.8c4-4.1,5.8-9.8,8.3-14.9
	c4.3-8.7,10.6-16.1,16-24.1c1-1.5,7.6-10.3,4.3-10.8C903.1,512.2,897.7,521.9,896.2,523.9z"/>
<path class="st5" d="M673.5,716.9c0,0-66.3-34.2-87.1-88.7c-8.6-22.9-24.3-42.4-44.9-55.6c-9.8-6.2-20.2-11.5-31-15.8"/>
<path class="st21" d="M497.2,522.5c6.3,6.1,13.8,35.1,13.8,35.1s-29.4-6.1-35.7-12.2c-6.4-6.1-6.6-16.1-0.5-22.5
	S490.8,516.4,497.2,522.5L497.2,522.5L497.2,522.5z"/>
<path class="st21" d="M550.4,537.1c2,8.5-7.6,37-7.6,37s-21.3-21.1-23.3-29.7c-2-8.5,3.3-17.1,11.8-19.1
	C539.9,523.3,548.4,528.6,550.4,537.1L550.4,537.1z"/>
<path class="st21" d="M609.7,595.3c-2.6,8.4-25.2,28.1-25.2,28.1s-7.8-29-5.2-37.3c2.6-8.4,11.4-13.1,19.8-10.6
	C607.5,578,612.2,586.9,609.7,595.3L609.7,595.3z"/>
<path class="st21" d="M521.1,599.3c8.8-0.3,33.6-17.1,33.6-17.1s-26-14.9-34.8-14.6c-8.8,0.3-15.6,7.7-15.3,16.5
	C504.9,592.8,512.3,599.6,521.1,599.3L521.1,599.3z"/>
<path class="st21" d="M562.7,662.1c8.3-2.9,26.9-26.4,26.9-26.4s-29.3-6.5-37.6-3.5c-8.3,2.9-12.6,12-9.7,20.3
	C545.3,660.7,554.4,665,562.7,662.1L562.7,662.1z"/>
<path class="st21" d="M611.5,717.6c8.6-1.5,31-21.5,31-21.5s-27.8-11.3-36.4-9.8c-8.6,1.5-14.4,9.7-12.9,18.3
	C594.6,713.3,602.8,719.1,611.5,717.6L611.5,717.6L611.5,717.6z"/>
</svg>
